<svg width="64" height="64" viewBox="0 0 64 64" fill="none" xmlns="http://www.w3.org/2000/svg">
  <rect width="64" height="64" rx="14" fill="#101828"/>
  <path d="M16 45V20C16 17.7909 17.7909 16 20 16H33C41.2843 16 48 22.7157 48 31C48 39.2843 41.2843 46 33 46H24V38H33C36.866 38 40 34.866 40 31C40 27.134 36.866 24 33 24H24V45H16Z" fill="#F8FAFC"/>
  <path d="M24 38H33C36.866 38 40 34.866 40 31C40 27.134 36.866 24 33 24H24V31H32C33.1046 31 34 31.8954 34 33C34 34.1046 33.1046 35 32 35H24V38Z" fill="#3B82F6"/>
  <circle cx="47" cy="18" r="4" fill="#14B8A6"/>
</svg>
