<svg width="256" height="256" viewBox="0 0 256 256" fill="none" xmlns="http://www.w3.org/2000/svg">
  <rect width="256" height="256" rx="48" fill="#F7F8FB"/>
  <path d="M64 174V82C64 72.0589 72.0589 64 82 64H132C166.242 64 194 91.7583 194 126C194 160.242 166.242 188 132 188H92V158H132C149.673 158 164 143.673 164 126C164 108.327 149.673 94 132 94H94V174H64Z" fill="#101828"/>
  <path d="M92 158H132C149.673 158 164 143.673 164 126C164 108.327 149.673 94 132 94H94V122H130C132.761 122 135 124.239 135 127C135 129.761 132.761 132 130 132H92V158Z" fill="#2563EB"/>
  <circle cx="182" cy="74" r="12" fill="#14B8A6"/>
  <circle cx="196" cy="102" r="6" fill="#F59E0B"/>
</svg>
